# xmcd
#
# Track frame offsets:
#	180
#	12802
#	25219
#	39518
#	53727
#	67850
#	79700
#	91699
#	105898
#	120329
#	134760
#	148668
#	162225
#	175813
#	196078
#	209799
#	225785
#	241238
#	251738
#	264376
#	278619
#	293518
#	304992
#
# Disc length: 4257 seconds
#
# Revision: 0
# Processed by: cddbd v1.5.2PL0 Copyright (c) Steve Scherf et al.
# Submitted via: audiograbber 1.83.01
#
DISCID=2a109f17
DTITLE=Various Artist - Blues goes on CD 6
DYEAR=1900
DGENRE=Blues
TTITLE0=Memphis Minnie - Moonshine
TTITLE1=John Lee Williamson - I Win The War Blues
TTITLE2=Oak Cliff T-Bone - Wichita Falls Blues
TTITLE3=Bessie Smith - Dixie Flyer Blues 
TTITLE4=John Lee Hooker - Going Home
TTITLE5=Big Joe Turner - Blues On Central Avenue
TTITLE6=T-Bone Walker - Dream Girl Blues
TTITLE7=Big Boy Crudup - Cry Your Blues Away
TTITLE8=Robert "Barbecue Bob" Hicks - Barbeque Blues
TTITLE9=Big Boy Crudup - Chicago Blues
TTITLE10=Big Bill Broonzy - Horny Frog
TTITLE11=Blind Boy Fuller - Brownskin Sugar Plum
TTITLE12=Robert Johnson - Terraplane Blues
TTITLE13=John Lee Hooker - Baby Baby
TTITLE14=T-Bone Walker - Call It Stormy Monday But Tuesday Is Just As Bad
TTITLE15=Sonny Terry - Lonesome Train
TTITLE16=Hot Lips Page - Evil Man`s Blues
TTITLE17=Lowell Fulson - San Francisco Blues
TTITLE18=Sonny Terry - Harmonica Stomp
TTITLE19=T-Bone Walker - Goodbye Blues 
TTITLE20=Bessie Smith - Aggravatin´ Papa
TTITLE21=John Lee Williamson - Black Panter Blues
TTITLE22=John Lee Hooker - Four Woman In My Life
EXTD=
EXTT0=
EXTT1=
EXTT2=
EXTT3=
EXTT4=
EXTT5=
EXTT6=
EXTT7=
EXTT8=
EXTT9=
EXTT10=
EXTT11=
EXTT12=
EXTT13=
EXTT14=
EXTT15=
EXTT16=
EXTT17=
EXTT18=
EXTT19=
EXTT20=
EXTT21=
EXTT22=
PLAYORDER=
